{
	"patcher" : 	{
		"fileversion" : 1,
		"appversion" : 		{
			"major" : 8,
			"minor" : 0,
			"revision" : 1,
			"architecture" : "x64",
			"modernui" : 1
		}
,
		"classnamespace" : "box",
		"rect" : [ 186.0, 448.0, 868.0, 365.0 ],
		"bglocked" : 0,
		"openinpresentation" : 1,
		"default_fontsize" : 12.0,
		"default_fontface" : 0,
		"default_fontname" : "Arial",
		"gridonopen" : 1,
		"gridsize" : [ 15.0, 15.0 ],
		"gridsnaponopen" : 1,
		"objectsnaponopen" : 1,
		"statusbarvisible" : 2,
		"toolbarvisible" : 1,
		"lefttoolbarpinned" : 0,
		"toptoolbarpinned" : 0,
		"righttoolbarpinned" : 0,
		"bottomtoolbarpinned" : 0,
		"toolbars_unpinned_last_save" : 0,
		"tallnewobj" : 0,
		"boxanimatetime" : 200,
		"enablehscroll" : 1,
		"enablevscroll" : 1,
		"devicewidth" : 0.0,
		"description" : "",
		"digest" : "",
		"tags" : "",
		"style" : "",
		"subpatcher_template" : "",
		"boxes" : [ 			{
				"box" : 				{
					"bgmode" : 0,
					"border" : 0,
					"clickthrough" : 0,
					"enablehscroll" : 0,
					"enablevscroll" : 0,
					"id" : "obj-112",
					"lockeddragscroll" : 0,
					"maxclass" : "bpatcher",
					"name" : "fx_slot.maxpat",
					"numinlets" : 1,
					"numoutlets" : 1,
					"offset" : [ 0.0, 0.0 ],
					"outlettype" : [ "" ],
					"patching_rect" : [ 781.348388999999997, 213.859252999999995, 49.5, 18.0 ],
					"presentation" : 1,
					"presentation_rect" : [ 177.6302490234375, 98.0, 49.5, 18.0 ],
					"viewvisibility" : 1
				}

			}
, 			{
				"box" : 				{
					"bgmode" : 0,
					"border" : 0,
					"clickthrough" : 0,
					"enablehscroll" : 0,
					"enablevscroll" : 0,
					"id" : "obj-113",
					"lockeddragscroll" : 0,
					"maxclass" : "bpatcher",
					"name" : "fx_slot.maxpat",
					"numinlets" : 1,
					"numoutlets" : 1,
					"offset" : [ 0.0, 0.0 ],
					"outlettype" : [ "" ],
					"patching_rect" : [ 781.348388999999997, 194.413085999999993, 49.5, 18.0 ],
					"presentation" : 1,
					"presentation_rect" : [ 177.6302490234375, 78.5538330078125, 49.5, 18.0 ],
					"viewvisibility" : 1
				}

			}
, 			{
				"box" : 				{
					"bgmode" : 0,
					"border" : 0,
					"clickthrough" : 0,
					"enablehscroll" : 0,
					"enablevscroll" : 0,
					"id" : "obj-114",
					"lockeddragscroll" : 0,
					"maxclass" : "bpatcher",
					"name" : "fx_slot.maxpat",
					"numinlets" : 1,
					"numoutlets" : 1,
					"offset" : [ 0.0, 0.0 ],
					"outlettype" : [ "" ],
					"patching_rect" : [ 781.348388999999997, 174.96691899999999, 49.5, 18.0 ],
					"presentation" : 1,
					"presentation_rect" : [ 177.6302490234375, 59.107666015625, 49.5, 18.0 ],
					"viewvisibility" : 1
				}

			}
, 			{
				"box" : 				{
					"bgmode" : 0,
					"border" : 0,
					"clickthrough" : 0,
					"enablehscroll" : 0,
					"enablevscroll" : 0,
					"id" : "obj-115",
					"lockeddragscroll" : 0,
					"maxclass" : "bpatcher",
					"name" : "fx_slot.maxpat",
					"numinlets" : 1,
					"numoutlets" : 1,
					"offset" : [ 0.0, 0.0 ],
					"outlettype" : [ "" ],
					"patching_rect" : [ 781.348388999999997, 155.520751999999987, 49.5, 18.0 ],
					"presentation" : 1,
					"presentation_rect" : [ 177.6302490234375, 39.6614990234375, 49.5, 18.0 ],
					"viewvisibility" : 1
				}

			}
, 			{
				"box" : 				{
					"fontface" : 1,
					"fontname" : "Arial",
					"fontsize" : 36.0,
					"hidden" : 1,
					"id" : "obj-147",
					"maxclass" : "comment",
					"numinlets" : 1,
					"numoutlets" : 0,
					"patching_rect" : [ 94.932372999999998, 25.0, 209.0, 47.0 ],
					"text" : "input levels",
					"textcolor" : [ 1.0, 1.0, 1.0, 1.0 ]
				}

			}
, 			{
				"box" : 				{
					"color" : [ 0.364706, 0.807843, 1.0, 1.0 ],
					"fontface" : 0,
					"fontname" : "Arial",
					"fontsize" : 12.0,
					"id" : "obj-129",
					"maxclass" : "newobj",
					"numinlets" : 1,
					"numoutlets" : 0,
					"patching_rect" : [ 638.432372999999984, 299.020752000000016, 82.0, 22.0 ],
					"text" : "s 1bus_mixer"
				}

			}
, 			{
				"box" : 				{
					"color" : [ 0.364706, 0.807843, 1.0, 1.0 ],
					"fontface" : 0,
					"fontname" : "Arial",
					"fontsize" : 12.0,
					"id" : "obj-128",
					"maxclass" : "newobj",
					"numinlets" : 1,
					"numoutlets" : 0,
					"patching_rect" : [ 460.598998999999992, 299.020752000000016, 83.0, 22.0 ],
					"text" : "s 1thru_mixer"
				}

			}
, 			{
				"box" : 				{
					"color" : [ 0.364706, 0.807843, 1.0, 1.0 ],
					"fontface" : 0,
					"fontname" : "Arial",
					"fontsize" : 12.0,
					"id" : "obj-126",
					"maxclass" : "newobj",
					"numinlets" : 0,
					"numoutlets" : 1,
					"outlettype" : [ "" ],
					"patching_rect" : [ 638.432372999999984, 84.020752000000002, 77.0, 22.0 ],
					"text" : "r 1bus_main"
				}

			}
, 			{
				"box" : 				{
					"color" : [ 0.364706, 0.807843, 1.0, 1.0 ],
					"fontface" : 0,
					"fontname" : "Arial",
					"fontsize" : 12.0,
					"id" : "obj-127",
					"maxclass" : "newobj",
					"numinlets" : 0,
					"numoutlets" : 1,
					"outlettype" : [ "" ],
					"patching_rect" : [ 664.432372999999984, 119.770752000000002, 97.0, 22.0 ],
					"text" : "r 1bus_metering"
				}

			}
, 			{
				"box" : 				{
					"color" : [ 0.364706, 0.807843, 1.0, 1.0 ],
					"fontface" : 0,
					"fontname" : "Arial",
					"fontsize" : 12.0,
					"id" : "obj-124",
					"maxclass" : "newobj",
					"numinlets" : 0,
					"numoutlets" : 1,
					"outlettype" : [ "" ],
					"patching_rect" : [ 460.598998999999992, 84.020752000000002, 78.0, 22.0 ],
					"text" : "r 1thru_main"
				}

			}
, 			{
				"box" : 				{
					"color" : [ 0.364706, 0.807843, 1.0, 1.0 ],
					"fontface" : 0,
					"fontname" : "Arial",
					"fontsize" : 12.0,
					"id" : "obj-125",
					"maxclass" : "newobj",
					"numinlets" : 0,
					"numoutlets" : 1,
					"outlettype" : [ "" ],
					"patching_rect" : [ 486.598998999999992, 119.770752000000002, 99.0, 22.0 ],
					"text" : "r 1thru_metering"
				}

			}
, 			{
				"box" : 				{
					"color" : [ 0.364706, 0.807843, 1.0, 1.0 ],
					"fontface" : 0,
					"fontname" : "Arial",
					"fontsize" : 12.0,
					"id" : "obj-121",
					"maxclass" : "newobj",
					"numinlets" : 1,
					"numoutlets" : 0,
					"patching_rect" : [ 277.765746999999976, 299.020752000000016, 89.0, 22.0 ],
					"text" : "s 2input_mixer"
				}

			}
, 			{
				"box" : 				{
					"color" : [ 0.364706, 0.807843, 1.0, 1.0 ],
					"fontface" : 0,
					"fontname" : "Arial",
					"fontsize" : 12.0,
					"id" : "obj-120",
					"maxclass" : "newobj",
					"numinlets" : 0,
					"numoutlets" : 1,
					"outlettype" : [ "" ],
					"patching_rect" : [ 277.765746999999976, 84.020752000000002, 83.0, 22.0 ],
					"text" : "r 2input_main"
				}

			}
, 			{
				"box" : 				{
					"color" : [ 0.364706, 0.807843, 1.0, 1.0 ],
					"fontface" : 0,
					"fontname" : "Arial",
					"fontsize" : 12.0,
					"id" : "obj-119",
					"maxclass" : "newobj",
					"numinlets" : 0,
					"numoutlets" : 1,
					"outlettype" : [ "" ],
					"patching_rect" : [ 303.765746999999976, 119.770752000000002, 104.0, 22.0 ],
					"text" : "r 2input_metering"
				}

			}
, 			{
				"box" : 				{
					"color" : [ 0.364706, 0.807843, 1.0, 1.0 ],
					"fontface" : 0,
					"fontname" : "Arial",
					"fontsize" : 12.0,
					"id" : "obj-93",
					"maxclass" : "newobj",
					"numinlets" : 0,
					"numoutlets" : 1,
					"outlettype" : [ "" ],
					"patching_rect" : [ 120.932372999999998, 119.770752000000002, 104.0, 22.0 ],
					"text" : "r 1input_metering"
				}

			}
, 			{
				"box" : 				{
					"color" : [ 0.364706, 0.807843, 1.0, 1.0 ],
					"fontface" : 0,
					"fontname" : "Arial",
					"fontsize" : 12.0,
					"id" : "obj-97",
					"maxclass" : "newobj",
					"numinlets" : 0,
					"numoutlets" : 1,
					"outlettype" : [ "" ],
					"patching_rect" : [ 94.932372999999998, 84.020752000000002, 83.0, 22.0 ],
					"text" : "r 1input_main"
				}

			}
, 			{
				"box" : 				{
					"color" : [ 0.364706, 0.807843, 1.0, 1.0 ],
					"fontface" : 0,
					"fontname" : "Arial",
					"fontsize" : 12.0,
					"id" : "obj-118",
					"maxclass" : "newobj",
					"numinlets" : 1,
					"numoutlets" : 0,
					"patching_rect" : [ 94.932372999999998, 299.020752000000016, 89.0, 22.0 ],
					"text" : "s 1input_mixer"
				}

			}
, 			{
				"box" : 				{
					"color" : [ 0.466667, 0.254902, 0.607843, 1.0 ],
					"id" : "obj-79",
					"maxclass" : "newobj",
					"numinlets" : 0,
					"numoutlets" : 1,
					"outlettype" : [ "" ],
					"patching_rect" : [ 584.5, 213.520751999999987, 37.0, 22.0 ],
					"text" : "r hint"
				}

			}
, 			{
				"box" : 				{
					"hint" : "Bus 1 gain level.",
					"id" : "obj-80",
					"maxclass" : "hint",
					"numinlets" : 1,
					"numoutlets" : 0,
					"patching_rect" : [ 584.5, 249.270751999999987, 45.0, 36.0 ],
					"presentation" : 1,
					"presentation_rect" : [ 184.3802490234375, 135.0, 45.0, 36.0 ]
				}

			}
, 			{
				"box" : 				{
					"fontface" : 2,
					"fontname" : "Helvetica Neue Light",
					"fontsize" : 12.0,
					"id" : "obj-81",
					"maxclass" : "comment",
					"numinlets" : 1,
					"numoutlets" : 0,
					"patching_rect" : [ 690.581665000000044, 257.270752000000016, 40.0, 20.0 ],
					"presentation" : 1,
					"presentation_rect" : [ 185.3802490234375, 118.233306884765625, 40.0, 20.0 ],
					"text" : "bus 1",
					"textcolor" : [ 1.0, 1.0, 1.0, 1.0 ]
				}

			}
, 			{
				"box" : 				{
					"activedialcolor" : [ 0.27451, 0.32549, 0.4, 0.0 ],
					"activefgdialcolor" : [ 0.27451, 0.32549, 0.4, 0.0 ],
					"activeneedlecolor" : [ 0.27451, 0.32549, 0.4, 0.0 ],
					"appearance" : 2,
					"bordercolor" : [ 0.27451, 0.32549, 0.4, 0.0 ],
					"dialcolor" : [ 0.27451, 0.32549, 0.4, 0.0 ],
					"fgdialcolor" : [ 0.27451, 0.32549, 0.4, 0.0 ],
					"focusbordercolor" : [ 0.27451, 0.32549, 0.4, 0.0 ],
					"id" : "obj-82",
					"maxclass" : "live.dial",
					"needlecolor" : [ 0.27451, 0.32549, 0.4, 0.0 ],
					"numinlets" : 1,
					"numoutlets" : 2,
					"outlettype" : [ "", "float" ],
					"panelcolor" : [ 0.27451, 0.32549, 0.4, 0.0 ],
					"parameter_enable" : 1,
					"patching_rect" : [ 638.432372999999984, 155.520751999999987, 50.0, 80.0 ],
					"presentation" : 1,
					"presentation_rect" : [ 177.3802490234375, 84.233306884765625, 50.0, 80.0 ],
					"saved_attribute_attributes" : 					{
						"valueof" : 						{
							"parameter_type" : 0,
							"parameter_unitstyle" : 1,
							"parameter_linknames" : 1,
							"parameter_longname" : "#1karma_gain[3]",
							"parameter_mmax" : 1.0,
							"parameter_initial" : [ 0 ],
							"parameter_shortname" : "gain"
						}

					}
,
					"showname" : 0,
					"textcolor" : [ 0.27451, 0.32549, 0.4, 0.0 ],
					"tricolor" : [ 0.27451, 0.32549, 0.4, 0.0 ],
					"varname" : "#1karma_gain[3]"
				}

			}
, 			{
				"box" : 				{
					"args" : [ "@size", "large", "@color", "pink" ],
					"bgmode" : 0,
					"border" : 0,
					"clickthrough" : 0,
					"enablehscroll" : 0,
					"enablevscroll" : 0,
					"id" : "obj-83",
					"lockeddragscroll" : 0,
					"maxclass" : "bpatcher",
					"name" : "tpv.dial.maxpat",
					"numinlets" : 2,
					"numoutlets" : 1,
					"offset" : [ -90.0, 0.0 ],
					"outlettype" : [ "" ],
					"patching_rect" : [ 638.432372999999984, 249.270751999999987, 45.0, 36.0 ],
					"presentation" : 1,
					"presentation_rect" : [ 184.3802490234375, 135.0, 45.0, 36.0 ],
					"viewvisibility" : 1
				}

			}
, 			{
				"box" : 				{
					"color" : [ 0.466667, 0.254902, 0.607843, 1.0 ],
					"id" : "obj-69",
					"maxclass" : "newobj",
					"numinlets" : 0,
					"numoutlets" : 1,
					"outlettype" : [ "" ],
					"patching_rect" : [ 223.833373999999992, 213.520751999999987, 37.0, 22.0 ],
					"text" : "r hint"
				}

			}
, 			{
				"box" : 				{
					"hint" : "Channel 2 input gain.",
					"id" : "obj-75",
					"maxclass" : "hint",
					"numinlets" : 1,
					"numoutlets" : 0,
					"patching_rect" : [ 223.833373999999992, 249.270751999999987, 45.0, 36.0 ],
					"presentation" : 1,
					"presentation_rect" : [ 66.3802490234375, 135.0, 45.0, 36.0 ]
				}

			}
, 			{
				"box" : 				{
					"fontface" : 2,
					"fontname" : "Helvetica Neue Light",
					"fontsize" : 12.0,
					"id" : "obj-76",
					"maxclass" : "comment",
					"numinlets" : 1,
					"numoutlets" : 0,
					"patching_rect" : [ 327.915038999999979, 257.270752000000016, 29.0, 20.0 ],
					"presentation" : 1,
					"presentation_rect" : [ 71.3802490234375, 118.233306884765625, 32.0, 20.0 ],
					"text" : "in 2",
					"textcolor" : [ 1.0, 1.0, 1.0, 1.0 ]
				}

			}
, 			{
				"box" : 				{
					"activedialcolor" : [ 0.27451, 0.32549, 0.4, 0.0 ],
					"activefgdialcolor" : [ 0.27451, 0.32549, 0.4, 0.0 ],
					"activeneedlecolor" : [ 0.27451, 0.32549, 0.4, 0.0 ],
					"appearance" : 2,
					"bordercolor" : [ 0.27451, 0.32549, 0.4, 0.0 ],
					"dialcolor" : [ 0.27451, 0.32549, 0.4, 0.0 ],
					"fgdialcolor" : [ 0.27451, 0.32549, 0.4, 0.0 ],
					"focusbordercolor" : [ 0.27451, 0.32549, 0.4, 0.0 ],
					"id" : "obj-77",
					"maxclass" : "live.dial",
					"needlecolor" : [ 0.27451, 0.32549, 0.4, 0.0 ],
					"numinlets" : 1,
					"numoutlets" : 2,
					"outlettype" : [ "", "float" ],
					"panelcolor" : [ 0.27451, 0.32549, 0.4, 0.0 ],
					"parameter_enable" : 1,
					"patching_rect" : [ 277.765746999999976, 155.520751999999987, 50.0, 80.0 ],
					"presentation" : 1,
					"presentation_rect" : [ 59.3802490234375, 84.233306884765625, 50.0, 80.0 ],
					"saved_attribute_attributes" : 					{
						"valueof" : 						{
							"parameter_type" : 0,
							"parameter_unitstyle" : 1,
							"parameter_linknames" : 1,
							"parameter_longname" : "#1karma_gain[2]",
							"parameter_mmax" : 1.0,
							"parameter_initial" : [ 0 ],
							"parameter_shortname" : "gain"
						}

					}
,
					"showname" : 0,
					"textcolor" : [ 0.27451, 0.32549, 0.4, 0.0 ],
					"tricolor" : [ 0.27451, 0.32549, 0.4, 0.0 ],
					"varname" : "#1karma_gain[2]"
				}

			}
, 			{
				"box" : 				{
					"args" : [ "@size", "large", "@color", "pink" ],
					"bgmode" : 0,
					"border" : 0,
					"clickthrough" : 0,
					"enablehscroll" : 0,
					"enablevscroll" : 0,
					"id" : "obj-78",
					"lockeddragscroll" : 0,
					"maxclass" : "bpatcher",
					"name" : "tpv.dial.maxpat",
					"numinlets" : 2,
					"numoutlets" : 1,
					"offset" : [ -90.0, 0.0 ],
					"outlettype" : [ "" ],
					"patching_rect" : [ 277.765746999999976, 249.270751999999987, 45.0, 36.0 ],
					"presentation" : 1,
					"presentation_rect" : [ 66.3802490234375, 135.0, 45.0, 36.0 ],
					"viewvisibility" : 1
				}

			}
, 			{
				"box" : 				{
					"color" : [ 0.466667, 0.254902, 0.607843, 1.0 ],
					"id" : "obj-37",
					"maxclass" : "newobj",
					"numinlets" : 0,
					"numoutlets" : 1,
					"outlettype" : [ "" ],
					"patching_rect" : [ 406.666626000000008, 213.520751999999987, 37.0, 22.0 ],
					"text" : "r hint"
				}

			}
, 			{
				"box" : 				{
					"hint" : "Controls how much if the signal (post fx) goes to the output. This is mainly use for 'live processing' incoming audio.",
					"id" : "obj-42",
					"maxclass" : "hint",
					"numinlets" : 1,
					"numoutlets" : 0,
					"patching_rect" : [ 406.666626000000008, 249.270751999999987, 45.0, 36.0 ],
					"presentation" : 1,
					"presentation_rect" : [ 125.3802490234375, 135.0, 45.0, 36.0 ]
				}

			}
, 			{
				"box" : 				{
					"fontface" : 2,
					"fontname" : "Helvetica Neue Light",
					"fontsize" : 12.0,
					"id" : "obj-57",
					"maxclass" : "comment",
					"numinlets" : 1,
					"numoutlets" : 0,
					"patching_rect" : [ 511.748290999999995, 257.270752000000016, 31.0, 20.0 ],
					"presentation" : 1,
					"presentation_rect" : [ 129.3802490234375, 118.233306884765625, 32.0, 20.0 ],
					"text" : "thru",
					"textcolor" : [ 1.0, 1.0, 1.0, 1.0 ]
				}

			}
, 			{
				"box" : 				{
					"activedialcolor" : [ 0.27451, 0.32549, 0.4, 0.0 ],
					"activefgdialcolor" : [ 0.27451, 0.32549, 0.4, 0.0 ],
					"activeneedlecolor" : [ 0.27451, 0.32549, 0.4, 0.0 ],
					"appearance" : 2,
					"bordercolor" : [ 0.27451, 0.32549, 0.4, 0.0 ],
					"dialcolor" : [ 0.27451, 0.32549, 0.4, 0.0 ],
					"fgdialcolor" : [ 0.27451, 0.32549, 0.4, 0.0 ],
					"focusbordercolor" : [ 0.27451, 0.32549, 0.4, 0.0 ],
					"id" : "obj-58",
					"maxclass" : "live.dial",
					"needlecolor" : [ 0.27451, 0.32549, 0.4, 0.0 ],
					"numinlets" : 1,
					"numoutlets" : 2,
					"outlettype" : [ "", "float" ],
					"panelcolor" : [ 0.27451, 0.32549, 0.4, 0.0 ],
					"parameter_enable" : 1,
					"patching_rect" : [ 460.598998999999992, 155.520751999999987, 50.0, 80.0 ],
					"presentation" : 1,
					"presentation_rect" : [ 118.3802490234375, 84.233306884765625, 50.0, 80.0 ],
					"saved_attribute_attributes" : 					{
						"valueof" : 						{
							"parameter_type" : 0,
							"parameter_unitstyle" : 1,
							"parameter_linknames" : 1,
							"parameter_longname" : "#1karma_gain[1]",
							"parameter_mmax" : 1.0,
							"parameter_initial" : [ 0 ],
							"parameter_shortname" : "gain"
						}

					}
,
					"showname" : 0,
					"textcolor" : [ 0.27451, 0.32549, 0.4, 0.0 ],
					"tricolor" : [ 0.27451, 0.32549, 0.4, 0.0 ],
					"varname" : "#1karma_gain[1]"
				}

			}
, 			{
				"box" : 				{
					"args" : [ "@size", "large", "@color", "pink" ],
					"bgmode" : 0,
					"border" : 0,
					"clickthrough" : 0,
					"enablehscroll" : 0,
					"enablevscroll" : 0,
					"id" : "obj-67",
					"lockeddragscroll" : 0,
					"maxclass" : "bpatcher",
					"name" : "tpv.dial.maxpat",
					"numinlets" : 2,
					"numoutlets" : 1,
					"offset" : [ -90.0, 0.0 ],
					"outlettype" : [ "" ],
					"patching_rect" : [ 460.598998999999992, 249.270751999999987, 45.0, 36.0 ],
					"presentation" : 1,
					"presentation_rect" : [ 125.3802490234375, 135.0, 45.0, 36.0 ],
					"viewvisibility" : 1
				}

			}
, 			{
				"box" : 				{
					"color" : [ 0.466667, 0.254902, 0.607843, 1.0 ],
					"id" : "obj-62",
					"maxclass" : "newobj",
					"numinlets" : 0,
					"numoutlets" : 1,
					"outlettype" : [ "" ],
					"patching_rect" : [ 41.0, 213.520751999999987, 37.0, 22.0 ],
					"text" : "r hint"
				}

			}
, 			{
				"box" : 				{
					"hint" : "Channel 1 input gain.",
					"id" : "obj-66",
					"maxclass" : "hint",
					"numinlets" : 1,
					"numoutlets" : 0,
					"patching_rect" : [ 41.0, 249.270751999999987, 45.0, 36.0 ],
					"presentation" : 1,
					"presentation_rect" : [ 7.0, 135.0, 45.0, 36.0 ]
				}

			}
, 			{
				"box" : 				{
					"fontface" : 2,
					"fontname" : "Helvetica Neue Light",
					"fontsize" : 12.0,
					"id" : "obj-90",
					"maxclass" : "comment",
					"numinlets" : 1,
					"numoutlets" : 0,
					"patching_rect" : [ 145.932373000000013, 257.270752000000016, 29.0, 20.0 ],
					"presentation" : 1,
					"presentation_rect" : [ 12.0, 118.233306884765625, 32.0, 20.0 ],
					"text" : "in 1",
					"textcolor" : [ 1.0, 1.0, 1.0, 1.0 ]
				}

			}
, 			{
				"box" : 				{
					"activedialcolor" : [ 0.27451, 0.32549, 0.4, 0.0 ],
					"activefgdialcolor" : [ 0.27451, 0.32549, 0.4, 0.0 ],
					"activeneedlecolor" : [ 0.27451, 0.32549, 0.4, 0.0 ],
					"appearance" : 2,
					"bordercolor" : [ 0.27451, 0.32549, 0.4, 0.0 ],
					"dialcolor" : [ 0.27451, 0.32549, 0.4, 0.0 ],
					"fgdialcolor" : [ 0.27451, 0.32549, 0.4, 0.0 ],
					"focusbordercolor" : [ 0.27451, 0.32549, 0.4, 0.0 ],
					"id" : "obj-163",
					"maxclass" : "live.dial",
					"needlecolor" : [ 0.27451, 0.32549, 0.4, 0.0 ],
					"numinlets" : 1,
					"numoutlets" : 2,
					"outlettype" : [ "", "float" ],
					"panelcolor" : [ 0.27451, 0.32549, 0.4, 0.0 ],
					"parameter_enable" : 1,
					"patching_rect" : [ 94.932372999999998, 155.520751999999987, 50.0, 80.0 ],
					"presentation" : 1,
					"presentation_rect" : [ 0.0, 84.233306884765625, 50.0, 80.0 ],
					"saved_attribute_attributes" : 					{
						"valueof" : 						{
							"parameter_type" : 0,
							"parameter_unitstyle" : 1,
							"parameter_linknames" : 1,
							"parameter_longname" : "#1karma_gain",
							"parameter_mmax" : 1.0,
							"parameter_initial" : [ 0 ],
							"parameter_shortname" : "gain"
						}

					}
,
					"showname" : 0,
					"textcolor" : [ 0.27451, 0.32549, 0.4, 0.0 ],
					"tricolor" : [ 0.27451, 0.32549, 0.4, 0.0 ],
					"varname" : "#1karma_gain"
				}

			}
, 			{
				"box" : 				{
					"args" : [ "@size", "large", "@color", "pink" ],
					"bgmode" : 0,
					"border" : 0,
					"clickthrough" : 0,
					"enablehscroll" : 0,
					"enablevscroll" : 0,
					"id" : "obj-88",
					"lockeddragscroll" : 0,
					"maxclass" : "bpatcher",
					"name" : "tpv.dial.maxpat",
					"numinlets" : 2,
					"numoutlets" : 1,
					"offset" : [ -90.0, 0.0 ],
					"outlettype" : [ "" ],
					"patching_rect" : [ 94.932372999999998, 249.270751999999987, 45.0, 36.0 ],
					"presentation" : 1,
					"presentation_rect" : [ 7.0, 135.0, 45.0, 36.0 ],
					"viewvisibility" : 1
				}

			}
 ],
		"lines" : [ 			{
				"patchline" : 				{
					"destination" : [ "obj-112", 0 ],
					"source" : [ "obj-113", 0 ]
				}

			}
, 			{
				"patchline" : 				{
					"destination" : [ "obj-113", 0 ],
					"source" : [ "obj-114", 0 ]
				}

			}
, 			{
				"patchline" : 				{
					"destination" : [ "obj-114", 0 ],
					"source" : [ "obj-115", 0 ]
				}

			}
, 			{
				"patchline" : 				{
					"destination" : [ "obj-78", 1 ],
					"source" : [ "obj-119", 0 ]
				}

			}
, 			{
				"patchline" : 				{
					"destination" : [ "obj-77", 0 ],
					"source" : [ "obj-120", 0 ]
				}

			}
, 			{
				"patchline" : 				{
					"destination" : [ "obj-58", 0 ],
					"source" : [ "obj-124", 0 ]
				}

			}
, 			{
				"patchline" : 				{
					"destination" : [ "obj-67", 1 ],
					"source" : [ "obj-125", 0 ]
				}

			}
, 			{
				"patchline" : 				{
					"destination" : [ "obj-82", 0 ],
					"source" : [ "obj-126", 0 ]
				}

			}
, 			{
				"patchline" : 				{
					"destination" : [ "obj-83", 1 ],
					"source" : [ "obj-127", 0 ]
				}

			}
, 			{
				"patchline" : 				{
					"destination" : [ "obj-88", 0 ],
					"source" : [ "obj-163", 0 ]
				}

			}
, 			{
				"patchline" : 				{
					"destination" : [ "obj-42", 0 ],
					"source" : [ "obj-37", 0 ]
				}

			}
, 			{
				"patchline" : 				{
					"destination" : [ "obj-67", 0 ],
					"source" : [ "obj-58", 0 ]
				}

			}
, 			{
				"patchline" : 				{
					"destination" : [ "obj-66", 0 ],
					"source" : [ "obj-62", 0 ]
				}

			}
, 			{
				"patchline" : 				{
					"destination" : [ "obj-128", 0 ],
					"source" : [ "obj-67", 0 ]
				}

			}
, 			{
				"patchline" : 				{
					"destination" : [ "obj-75", 0 ],
					"source" : [ "obj-69", 0 ]
				}

			}
, 			{
				"patchline" : 				{
					"destination" : [ "obj-78", 0 ],
					"source" : [ "obj-77", 0 ]
				}

			}
, 			{
				"patchline" : 				{
					"destination" : [ "obj-121", 0 ],
					"source" : [ "obj-78", 0 ]
				}

			}
, 			{
				"patchline" : 				{
					"destination" : [ "obj-80", 0 ],
					"source" : [ "obj-79", 0 ]
				}

			}
, 			{
				"patchline" : 				{
					"destination" : [ "obj-83", 0 ],
					"source" : [ "obj-82", 0 ]
				}

			}
, 			{
				"patchline" : 				{
					"destination" : [ "obj-129", 0 ],
					"source" : [ "obj-83", 0 ]
				}

			}
, 			{
				"patchline" : 				{
					"destination" : [ "obj-118", 0 ],
					"source" : [ "obj-88", 0 ]
				}

			}
, 			{
				"patchline" : 				{
					"destination" : [ "obj-88", 1 ],
					"source" : [ "obj-93", 0 ]
				}

			}
, 			{
				"patchline" : 				{
					"destination" : [ "obj-163", 0 ],
					"source" : [ "obj-97", 0 ]
				}

			}
 ],
		"parameters" : 		{
			"obj-67::obj-179" : [ "live.numbox[5]", "live.numbox[11]", 0 ],
			"obj-83::obj-18" : [ "live.numbox[1]", "live.numbox[11]", 0 ],
			"obj-82" : [ "#1karma_gain[3]", "gain", 0 ],
			"obj-88::obj-18" : [ "live.numbox[6]", "live.numbox[11]", 0 ],
			"obj-115::obj-61::obj-79" : [ "0karma_slicer_random[1]", "slicer random", 0 ],
			"obj-78::obj-179" : [ "live.numbox[3]", "live.numbox[11]", 0 ],
			"obj-112::obj-61::obj-79" : [ "0karma_slicer_random[4]", "slicer random", 0 ],
			"obj-114::obj-61::obj-79" : [ "0karma_slicer_random[2]", "slicer random", 0 ],
			"obj-88::obj-179" : [ "live.numbox[7]", "live.numbox[11]", 0 ],
			"obj-67::obj-18" : [ "live.numbox[4]", "live.numbox[11]", 0 ],
			"obj-77" : [ "#1karma_gain[2]", "gain", 0 ],
			"obj-163" : [ "#1karma_gain", "gain", 0 ],
			"obj-58" : [ "#1karma_gain[1]", "gain", 0 ],
			"obj-83::obj-179" : [ "live.numbox[32]", "live.numbox[11]", 0 ],
			"obj-78::obj-18" : [ "live.numbox[2]", "live.numbox[11]", 0 ],
			"obj-113::obj-61::obj-79" : [ "0karma_slicer_random[3]", "slicer random", 0 ],
			"parameterbanks" : 			{

			}

		}
,
		"dependency_cache" : [ 			{
				"name" : "tpv.dial.maxpat",
				"bootpath" : "~/Sync/Patches/TPV2",
				"patcherrelativepath" : ".",
				"type" : "JSON",
				"implicit" : 1
			}
, 			{
				"name" : "fx_slot.maxpat",
				"bootpath" : "~/Sync/Patches/TPV2",
				"patcherrelativepath" : ".",
				"type" : "JSON",
				"implicit" : 1
			}
, 			{
				"name" : "fx_hover.maxpat",
				"bootpath" : "~/Sync/Patches/TPV2",
				"patcherrelativepath" : ".",
				"type" : "JSON",
				"implicit" : 1
			}
 ],
		"autosave" : 0,
		"styles" : [ 			{
				"name" : "AudioStatus_Menu",
				"default" : 				{
					"bgfillcolor" : 					{
						"type" : "color",
						"color" : [ 0.294118, 0.313726, 0.337255, 1 ],
						"color1" : [ 0.454902, 0.462745, 0.482353, 0.0 ],
						"color2" : [ 0.290196, 0.309804, 0.301961, 1.0 ],
						"angle" : 270.0,
						"proportion" : 0.39,
						"autogradient" : 0
					}

				}
,
				"parentstyle" : "",
				"multi" : 0
			}
, 			{
				"name" : "ksliderWhite",
				"default" : 				{
					"color" : [ 1.0, 1.0, 1.0, 1.0 ]
				}
,
				"parentstyle" : "",
				"multi" : 0
			}
, 			{
				"name" : "newobjBlue-1",
				"default" : 				{
					"accentcolor" : [ 0.317647, 0.654902, 0.976471, 1.0 ]
				}
,
				"parentstyle" : "",
				"multi" : 0
			}
, 			{
				"name" : "newobjBrown-1",
				"default" : 				{
					"accentcolor" : [ 0.654902, 0.572549, 0.376471, 1.0 ]
				}
,
				"parentstyle" : "",
				"multi" : 0
			}
, 			{
				"name" : "newobjCyan-1",
				"default" : 				{
					"accentcolor" : [ 0.029546, 0.773327, 0.821113, 1.0 ]
				}
,
				"parentstyle" : "",
				"multi" : 0
			}
, 			{
				"name" : "newobjGreen-1",
				"default" : 				{
					"accentcolor" : [ 0.0, 0.533333, 0.168627, 1.0 ]
				}
,
				"parentstyle" : "",
				"multi" : 0
			}
, 			{
				"name" : "newobjYellow-1",
				"default" : 				{
					"fontsize" : [ 12.059008 ],
					"accentcolor" : [ 0.82517, 0.78181, 0.059545, 1.0 ]
				}
,
				"parentstyle" : "",
				"multi" : 0
			}
, 			{
				"name" : "numberGold-1",
				"default" : 				{
					"accentcolor" : [ 0.764706, 0.592157, 0.101961, 1.0 ]
				}
,
				"parentstyle" : "",
				"multi" : 0
			}
, 			{
				"name" : "rsliderGold",
				"default" : 				{
					"bgcolor" : [ 0.764706, 0.592157, 0.101961, 1.0 ],
					"color" : [ 0.646639, 0.821777, 0.854593, 1.0 ]
				}
,
				"parentstyle" : "",
				"multi" : 0
			}
 ]
	}

}
