{
	"patcher" : 	{
		"fileversion" : 1,
		"appversion" : 		{
			"major" : 8,
			"minor" : 0,
			"revision" : 1,
			"architecture" : "x64",
			"modernui" : 1
		}
,
		"classnamespace" : "box",
		"rect" : [ 165.0, 455.0, 619.0, 366.0 ],
		"bglocked" : 0,
		"openinpresentation" : 1,
		"default_fontsize" : 12.0,
		"default_fontface" : 0,
		"default_fontname" : "Arial",
		"gridonopen" : 1,
		"gridsize" : [ 15.0, 15.0 ],
		"gridsnaponopen" : 1,
		"objectsnaponopen" : 1,
		"statusbarvisible" : 2,
		"toolbarvisible" : 1,
		"lefttoolbarpinned" : 0,
		"toptoolbarpinned" : 0,
		"righttoolbarpinned" : 0,
		"bottomtoolbarpinned" : 0,
		"toolbars_unpinned_last_save" : 0,
		"tallnewobj" : 0,
		"boxanimatetime" : 200,
		"enablehscroll" : 1,
		"enablevscroll" : 1,
		"devicewidth" : 0.0,
		"description" : "",
		"digest" : "",
		"tags" : "",
		"style" : "",
		"subpatcher_template" : "",
		"boxes" : [ 			{
				"box" : 				{
					"bgmode" : 0,
					"border" : 0,
					"clickthrough" : 0,
					"enablehscroll" : 0,
					"enablevscroll" : 0,
					"id" : "obj-108",
					"lockeddragscroll" : 0,
					"maxclass" : "bpatcher",
					"name" : "fx_slot.maxpat",
					"numinlets" : 1,
					"numoutlets" : 1,
					"offset" : [ 0.0, 0.0 ],
					"outlettype" : [ "" ],
					"patching_rect" : [ 446.0, 158.666686999999996, 49.5, 18.0 ],
					"presentation" : 1,
					"presentation_rect" : [ 82.3614501953125, 57.892333984375, 49.5, 18.0 ],
					"viewvisibility" : 1
				}

			}
, 			{
				"box" : 				{
					"bgmode" : 0,
					"border" : 0,
					"clickthrough" : 0,
					"enablehscroll" : 0,
					"enablevscroll" : 0,
					"id" : "obj-109",
					"lockeddragscroll" : 0,
					"maxclass" : "bpatcher",
					"name" : "fx_slot.maxpat",
					"numinlets" : 1,
					"numoutlets" : 1,
					"offset" : [ 0.0, 0.0 ],
					"outlettype" : [ "" ],
					"patching_rect" : [ 446.0, 139.220519999999993, 49.5, 18.0 ],
					"presentation" : 1,
					"presentation_rect" : [ 82.3614501953125, 38.4461669921875, 49.5, 18.0 ],
					"viewvisibility" : 1
				}

			}
, 			{
				"box" : 				{
					"bgmode" : 0,
					"border" : 0,
					"clickthrough" : 0,
					"enablehscroll" : 0,
					"enablevscroll" : 0,
					"id" : "obj-110",
					"lockeddragscroll" : 0,
					"maxclass" : "bpatcher",
					"name" : "fx_slot.maxpat",
					"numinlets" : 1,
					"numoutlets" : 1,
					"offset" : [ 0.0, 0.0 ],
					"outlettype" : [ "" ],
					"patching_rect" : [ 446.0, 119.774353000000005, 49.5, 18.0 ],
					"presentation" : 1,
					"presentation_rect" : [ 82.3614501953125, 19.0, 49.5, 18.0 ],
					"viewvisibility" : 1
				}

			}
, 			{
				"box" : 				{
					"bgmode" : 0,
					"border" : 0,
					"clickthrough" : 0,
					"enablehscroll" : 0,
					"enablevscroll" : 0,
					"id" : "obj-111",
					"lockeddragscroll" : 0,
					"maxclass" : "bpatcher",
					"name" : "fx_slot.maxpat",
					"numinlets" : 1,
					"numoutlets" : 1,
					"offset" : [ 0.0, 0.0 ],
					"outlettype" : [ "" ],
					"patching_rect" : [ 446.0, 100.328186000000002, 49.5, 18.0 ],
					"presentation" : 1,
					"presentation_rect" : [ 82.3614501953125, 0.0, 49.5, 18.0 ],
					"viewvisibility" : 1
				}

			}
, 			{
				"box" : 				{
					"bgmode" : 0,
					"border" : 0,
					"clickthrough" : 0,
					"enablehscroll" : 0,
					"enablevscroll" : 0,
					"id" : "obj-85",
					"lockeddragscroll" : 0,
					"maxclass" : "bpatcher",
					"name" : "fx_slot.maxpat",
					"numinlets" : 1,
					"numoutlets" : 1,
					"offset" : [ 0.0, 0.0 ],
					"outlettype" : [ "" ],
					"patching_rect" : [ 506.182372999999984, 158.666686999999996, 49.5, 18.0 ],
					"presentation" : 1,
					"presentation_rect" : [ 0.0, 57.892333984375, 49.5, 18.0 ],
					"viewvisibility" : 1
				}

			}
, 			{
				"box" : 				{
					"bgmode" : 0,
					"border" : 0,
					"clickthrough" : 0,
					"enablehscroll" : 0,
					"enablevscroll" : 0,
					"id" : "obj-102",
					"lockeddragscroll" : 0,
					"maxclass" : "bpatcher",
					"name" : "fx_slot.maxpat",
					"numinlets" : 1,
					"numoutlets" : 1,
					"offset" : [ 0.0, 0.0 ],
					"outlettype" : [ "" ],
					"patching_rect" : [ 506.182372999999984, 139.220519999999993, 49.5, 18.0 ],
					"presentation" : 1,
					"presentation_rect" : [ 0.0, 38.4461669921875, 49.5, 18.0 ],
					"viewvisibility" : 1
				}

			}
, 			{
				"box" : 				{
					"bgmode" : 0,
					"border" : 0,
					"clickthrough" : 0,
					"enablehscroll" : 0,
					"enablevscroll" : 0,
					"id" : "obj-105",
					"lockeddragscroll" : 0,
					"maxclass" : "bpatcher",
					"name" : "fx_slot.maxpat",
					"numinlets" : 1,
					"numoutlets" : 1,
					"offset" : [ 0.0, 0.0 ],
					"outlettype" : [ "" ],
					"patching_rect" : [ 506.182372999999984, 119.774353000000005, 49.5, 18.0 ],
					"presentation" : 1,
					"presentation_rect" : [ 0.0, 19.0, 49.5, 18.0 ],
					"viewvisibility" : 1
				}

			}
, 			{
				"box" : 				{
					"bgmode" : 0,
					"border" : 0,
					"clickthrough" : 0,
					"enablehscroll" : 0,
					"enablevscroll" : 0,
					"id" : "obj-106",
					"lockeddragscroll" : 0,
					"maxclass" : "bpatcher",
					"name" : "fx_slot.maxpat",
					"numinlets" : 1,
					"numoutlets" : 1,
					"offset" : [ 0.0, 0.0 ],
					"outlettype" : [ "" ],
					"patching_rect" : [ 506.182372999999984, 100.328186000000002, 49.5, 18.0 ],
					"presentation" : 1,
					"presentation_rect" : [ 0.0, 0.0, 49.5, 18.0 ],
					"viewvisibility" : 1
				}

			}
, 			{
				"box" : 				{
					"fontface" : 1,
					"fontname" : "Arial",
					"fontsize" : 36.0,
					"hidden" : 1,
					"id" : "obj-148",
					"maxclass" : "comment",
					"numinlets" : 1,
					"numoutlets" : 0,
					"patching_rect" : [ 42.0, 22.0, 233.0, 47.0 ],
					"text" : "output levels",
					"textcolor" : [ 1.0, 1.0, 1.0, 1.0 ]
				}

			}
, 			{
				"box" : 				{
					"color" : [ 0.364706, 0.807843, 1.0, 1.0 ],
					"fontface" : 0,
					"fontname" : "Arial",
					"fontsize" : 12.0,
					"id" : "obj-138",
					"maxclass" : "newobj",
					"numinlets" : 1,
					"numoutlets" : 0,
					"patching_rect" : [ 273.765746999999976, 296.020752000000016, 79.0, 22.0 ],
					"text" : "s 2out_mixer"
				}

			}
, 			{
				"box" : 				{
					"color" : [ 0.364706, 0.807843, 1.0, 1.0 ],
					"fontface" : 0,
					"fontname" : "Arial",
					"fontsize" : 12.0,
					"id" : "obj-139",
					"maxclass" : "newobj",
					"numinlets" : 0,
					"numoutlets" : 1,
					"outlettype" : [ "" ],
					"patching_rect" : [ 273.765746999999976, 81.020752000000002, 74.0, 22.0 ],
					"text" : "r 2out_main"
				}

			}
, 			{
				"box" : 				{
					"color" : [ 0.364706, 0.807843, 1.0, 1.0 ],
					"fontface" : 0,
					"fontname" : "Arial",
					"fontsize" : 12.0,
					"id" : "obj-140",
					"maxclass" : "newobj",
					"numinlets" : 0,
					"numoutlets" : 1,
					"outlettype" : [ "" ],
					"patching_rect" : [ 299.765746999999976, 116.770752000000002, 95.0, 22.0 ],
					"text" : "r 2out_metering"
				}

			}
, 			{
				"box" : 				{
					"color" : [ 0.466667, 0.254902, 0.607843, 1.0 ],
					"id" : "obj-141",
					"maxclass" : "newobj",
					"numinlets" : 0,
					"numoutlets" : 1,
					"outlettype" : [ "" ],
					"patching_rect" : [ 219.833373999999992, 210.520751999999987, 37.0, 22.0 ],
					"text" : "r hint"
				}

			}
, 			{
				"box" : 				{
					"hint" : "Output 2 level.",
					"id" : "obj-143",
					"maxclass" : "hint",
					"numinlets" : 1,
					"numoutlets" : 0,
					"patching_rect" : [ 219.833373999999992, 246.270751999999987, 45.0, 36.0 ],
					"presentation" : 1,
					"presentation_rect" : [ 86.3614501953125, 94.892333984375, 45.0, 36.0 ]
				}

			}
, 			{
				"box" : 				{
					"fontface" : 2,
					"fontname" : "Helvetica Neue Light",
					"fontsize" : 12.0,
					"id" : "obj-144",
					"maxclass" : "comment",
					"numinlets" : 1,
					"numoutlets" : 0,
					"patching_rect" : [ 325.915038999999979, 254.270751999999987, 37.0, 20.0 ],
					"presentation" : 1,
					"presentation_rect" : [ 87.3614501953125, 78.1256103515625, 40.0, 20.0 ],
					"text" : "out 1",
					"textcolor" : [ 1.0, 1.0, 1.0, 1.0 ]
				}

			}
, 			{
				"box" : 				{
					"activedialcolor" : [ 0.27451, 0.32549, 0.4, 0.0 ],
					"activefgdialcolor" : [ 0.27451, 0.32549, 0.4, 0.0 ],
					"activeneedlecolor" : [ 0.27451, 0.32549, 0.4, 0.0 ],
					"appearance" : 2,
					"bordercolor" : [ 0.27451, 0.32549, 0.4, 0.0 ],
					"dialcolor" : [ 0.27451, 0.32549, 0.4, 0.0 ],
					"fgdialcolor" : [ 0.27451, 0.32549, 0.4, 0.0 ],
					"focusbordercolor" : [ 0.27451, 0.32549, 0.4, 0.0 ],
					"id" : "obj-145",
					"maxclass" : "live.dial",
					"needlecolor" : [ 0.27451, 0.32549, 0.4, 0.0 ],
					"numinlets" : 1,
					"numoutlets" : 2,
					"outlettype" : [ "", "float" ],
					"panelcolor" : [ 0.27451, 0.32549, 0.4, 0.0 ],
					"parameter_enable" : 1,
					"patching_rect" : [ 273.765746999999976, 152.520751999999987, 50.0, 80.0 ],
					"presentation" : 1,
					"presentation_rect" : [ 79.3614501953125, 44.125606536865234, 50.0, 80.0 ],
					"saved_attribute_attributes" : 					{
						"valueof" : 						{
							"parameter_type" : 0,
							"parameter_unitstyle" : 1,
							"parameter_linknames" : 1,
							"parameter_longname" : "#1karma_gain[5]",
							"parameter_initial_enable" : 1,
							"parameter_mmax" : 1.0,
							"parameter_initial" : [ 0 ],
							"parameter_shortname" : "gain"
						}

					}
,
					"showname" : 0,
					"textcolor" : [ 0.27451, 0.32549, 0.4, 0.0 ],
					"tricolor" : [ 0.27451, 0.32549, 0.4, 0.0 ],
					"varname" : "#1karma_gain[5]"
				}

			}
, 			{
				"box" : 				{
					"args" : [ "@size", "large", "@color", "pink" ],
					"bgmode" : 0,
					"border" : 0,
					"clickthrough" : 0,
					"enablehscroll" : 0,
					"enablevscroll" : 0,
					"id" : "obj-146",
					"lockeddragscroll" : 0,
					"maxclass" : "bpatcher",
					"name" : "tpv.dial.maxpat",
					"numinlets" : 2,
					"numoutlets" : 1,
					"offset" : [ -90.0, 0.0 ],
					"outlettype" : [ "" ],
					"patching_rect" : [ 273.765746999999976, 246.270751999999987, 45.0, 36.0 ],
					"presentation" : 1,
					"presentation_rect" : [ 86.3614501953125, 94.892333984375, 45.0, 36.0 ],
					"viewvisibility" : 1
				}

			}
, 			{
				"box" : 				{
					"color" : [ 0.364706, 0.807843, 1.0, 1.0 ],
					"fontface" : 0,
					"fontname" : "Arial",
					"fontsize" : 12.0,
					"id" : "obj-130",
					"maxclass" : "newobj",
					"numinlets" : 1,
					"numoutlets" : 0,
					"patching_rect" : [ 95.932372999999998, 296.020752000000016, 79.0, 22.0 ],
					"text" : "s 1out_mixer"
				}

			}
, 			{
				"box" : 				{
					"color" : [ 0.364706, 0.807843, 1.0, 1.0 ],
					"fontface" : 0,
					"fontname" : "Arial",
					"fontsize" : 12.0,
					"id" : "obj-131",
					"maxclass" : "newobj",
					"numinlets" : 0,
					"numoutlets" : 1,
					"outlettype" : [ "" ],
					"patching_rect" : [ 95.932372999999998, 81.020752000000002, 74.0, 22.0 ],
					"text" : "r 1out_main"
				}

			}
, 			{
				"box" : 				{
					"color" : [ 0.364706, 0.807843, 1.0, 1.0 ],
					"fontface" : 0,
					"fontname" : "Arial",
					"fontsize" : 12.0,
					"id" : "obj-132",
					"maxclass" : "newobj",
					"numinlets" : 0,
					"numoutlets" : 1,
					"outlettype" : [ "" ],
					"patching_rect" : [ 121.932372999999998, 116.770752000000002, 95.0, 22.0 ],
					"text" : "r 1out_metering"
				}

			}
, 			{
				"box" : 				{
					"color" : [ 0.466667, 0.254902, 0.607843, 1.0 ],
					"id" : "obj-133",
					"maxclass" : "newobj",
					"numinlets" : 0,
					"numoutlets" : 1,
					"outlettype" : [ "" ],
					"patching_rect" : [ 42.0, 210.520751999999987, 37.0, 22.0 ],
					"text" : "r hint"
				}

			}
, 			{
				"box" : 				{
					"hint" : "Output 1 level.",
					"id" : "obj-134",
					"maxclass" : "hint",
					"numinlets" : 1,
					"numoutlets" : 0,
					"patching_rect" : [ 42.0, 246.270751999999987, 45.0, 36.0 ],
					"presentation" : 1,
					"presentation_rect" : [ 3.0, 94.892333984375, 45.0, 36.0 ]
				}

			}
, 			{
				"box" : 				{
					"fontface" : 2,
					"fontname" : "Helvetica Neue Light",
					"fontsize" : 12.0,
					"id" : "obj-135",
					"maxclass" : "comment",
					"numinlets" : 1,
					"numoutlets" : 0,
					"patching_rect" : [ 148.081664999999987, 254.270751999999987, 37.0, 20.0 ],
					"presentation" : 1,
					"presentation_rect" : [ 4.0, 78.1256103515625, 40.0, 20.0 ],
					"text" : "out 1",
					"textcolor" : [ 1.0, 1.0, 1.0, 1.0 ]
				}

			}
, 			{
				"box" : 				{
					"activedialcolor" : [ 0.27451, 0.32549, 0.4, 0.0 ],
					"activefgdialcolor" : [ 0.27451, 0.32549, 0.4, 0.0 ],
					"activeneedlecolor" : [ 0.27451, 0.32549, 0.4, 0.0 ],
					"appearance" : 2,
					"bordercolor" : [ 0.27451, 0.32549, 0.4, 0.0 ],
					"dialcolor" : [ 0.27451, 0.32549, 0.4, 0.0 ],
					"fgdialcolor" : [ 0.27451, 0.32549, 0.4, 0.0 ],
					"focusbordercolor" : [ 0.27451, 0.32549, 0.4, 0.0 ],
					"id" : "obj-136",
					"maxclass" : "live.dial",
					"needlecolor" : [ 0.27451, 0.32549, 0.4, 0.0 ],
					"numinlets" : 1,
					"numoutlets" : 2,
					"outlettype" : [ "", "float" ],
					"panelcolor" : [ 0.27451, 0.32549, 0.4, 0.0 ],
					"parameter_enable" : 1,
					"patching_rect" : [ 95.932372999999998, 152.520751999999987, 50.0, 80.0 ],
					"presentation" : 1,
					"presentation_rect" : [ -4.0, 44.1256103515625, 50.0, 80.0 ],
					"saved_attribute_attributes" : 					{
						"valueof" : 						{
							"parameter_type" : 0,
							"parameter_unitstyle" : 1,
							"parameter_linknames" : 1,
							"parameter_longname" : "#1karma_gain[4]",
							"parameter_initial_enable" : 1,
							"parameter_mmax" : 1.0,
							"parameter_initial" : [ 0 ],
							"parameter_shortname" : "gain"
						}

					}
,
					"showname" : 0,
					"textcolor" : [ 0.27451, 0.32549, 0.4, 0.0 ],
					"tricolor" : [ 0.27451, 0.32549, 0.4, 0.0 ],
					"varname" : "#1karma_gain[4]"
				}

			}
, 			{
				"box" : 				{
					"args" : [ "@size", "large", "@color", "pink" ],
					"bgmode" : 0,
					"border" : 0,
					"clickthrough" : 0,
					"enablehscroll" : 0,
					"enablevscroll" : 0,
					"id" : "obj-137",
					"lockeddragscroll" : 0,
					"maxclass" : "bpatcher",
					"name" : "tpv.dial.maxpat",
					"numinlets" : 2,
					"numoutlets" : 1,
					"offset" : [ -90.0, 0.0 ],
					"outlettype" : [ "" ],
					"patching_rect" : [ 95.932372999999998, 246.270751999999987, 45.0, 36.0 ],
					"presentation" : 1,
					"presentation_rect" : [ 3.0, 94.892333984375, 45.0, 36.0 ],
					"viewvisibility" : 1
				}

			}
 ],
		"lines" : [ 			{
				"patchline" : 				{
					"destination" : [ "obj-85", 0 ],
					"source" : [ "obj-102", 0 ]
				}

			}
, 			{
				"patchline" : 				{
					"destination" : [ "obj-102", 0 ],
					"source" : [ "obj-105", 0 ]
				}

			}
, 			{
				"patchline" : 				{
					"destination" : [ "obj-105", 0 ],
					"source" : [ "obj-106", 0 ]
				}

			}
, 			{
				"patchline" : 				{
					"destination" : [ "obj-108", 0 ],
					"source" : [ "obj-109", 0 ]
				}

			}
, 			{
				"patchline" : 				{
					"destination" : [ "obj-109", 0 ],
					"source" : [ "obj-110", 0 ]
				}

			}
, 			{
				"patchline" : 				{
					"destination" : [ "obj-110", 0 ],
					"source" : [ "obj-111", 0 ]
				}

			}
, 			{
				"patchline" : 				{
					"destination" : [ "obj-136", 0 ],
					"source" : [ "obj-131", 0 ]
				}

			}
, 			{
				"patchline" : 				{
					"destination" : [ "obj-137", 1 ],
					"source" : [ "obj-132", 0 ]
				}

			}
, 			{
				"patchline" : 				{
					"destination" : [ "obj-134", 0 ],
					"source" : [ "obj-133", 0 ]
				}

			}
, 			{
				"patchline" : 				{
					"destination" : [ "obj-137", 0 ],
					"source" : [ "obj-136", 0 ]
				}

			}
, 			{
				"patchline" : 				{
					"destination" : [ "obj-130", 0 ],
					"source" : [ "obj-137", 0 ]
				}

			}
, 			{
				"patchline" : 				{
					"destination" : [ "obj-145", 0 ],
					"source" : [ "obj-139", 0 ]
				}

			}
, 			{
				"patchline" : 				{
					"destination" : [ "obj-146", 1 ],
					"source" : [ "obj-140", 0 ]
				}

			}
, 			{
				"patchline" : 				{
					"destination" : [ "obj-143", 0 ],
					"source" : [ "obj-141", 0 ]
				}

			}
, 			{
				"patchline" : 				{
					"destination" : [ "obj-146", 0 ],
					"source" : [ "obj-145", 0 ]
				}

			}
, 			{
				"patchline" : 				{
					"destination" : [ "obj-138", 0 ],
					"source" : [ "obj-146", 0 ]
				}

			}
 ],
		"parameters" : 		{
			"obj-145" : [ "#1karma_gain[5]", "gain", 0 ],
			"obj-109::obj-61::obj-79" : [ "0karma_slicer_random[7]", "slicer random", 0 ],
			"obj-146::obj-18" : [ "live.numbox[1]", "live.numbox[11]", 0 ],
			"obj-111::obj-61::obj-79" : [ "0karma_slicer_random[5]", "slicer random", 0 ],
			"obj-106::obj-61::obj-79" : [ "0karma_slicer_random[1]", "slicer random", 0 ],
			"obj-85::obj-61::obj-79" : [ "0karma_slicer_random[4]", "slicer random", 0 ],
			"obj-108::obj-61::obj-79" : [ "0karma_slicer_random[8]", "slicer random", 0 ],
			"obj-105::obj-61::obj-79" : [ "0karma_slicer_random[2]", "slicer random", 0 ],
			"obj-137::obj-18" : [ "live.numbox[7]", "live.numbox[11]", 0 ],
			"obj-136" : [ "#1karma_gain[4]", "gain", 0 ],
			"obj-110::obj-61::obj-79" : [ "0karma_slicer_random[6]", "slicer random", 0 ],
			"obj-137::obj-179" : [ "live.numbox[8]", "live.numbox[11]", 0 ],
			"obj-146::obj-179" : [ "live.numbox[32]", "live.numbox[11]", 0 ],
			"obj-102::obj-61::obj-79" : [ "0karma_slicer_random[3]", "slicer random", 0 ],
			"parameterbanks" : 			{

			}

		}
,
		"dependency_cache" : [ 			{
				"name" : "tpv.dial.maxpat",
				"bootpath" : "~/Sync/Patches/TPV2",
				"patcherrelativepath" : ".",
				"type" : "JSON",
				"implicit" : 1
			}
, 			{
				"name" : "fx_slot.maxpat",
				"bootpath" : "~/Sync/Patches/TPV2",
				"patcherrelativepath" : ".",
				"type" : "JSON",
				"implicit" : 1
			}
, 			{
				"name" : "fx_hover.maxpat",
				"bootpath" : "~/Sync/Patches/TPV2",
				"patcherrelativepath" : ".",
				"type" : "JSON",
				"implicit" : 1
			}
 ],
		"autosave" : 0,
		"styles" : [ 			{
				"name" : "AudioStatus_Menu",
				"default" : 				{
					"bgfillcolor" : 					{
						"type" : "color",
						"color" : [ 0.294118, 0.313726, 0.337255, 1 ],
						"color1" : [ 0.454902, 0.462745, 0.482353, 0.0 ],
						"color2" : [ 0.290196, 0.309804, 0.301961, 1.0 ],
						"angle" : 270.0,
						"proportion" : 0.39,
						"autogradient" : 0
					}

				}
,
				"parentstyle" : "",
				"multi" : 0
			}
, 			{
				"name" : "ksliderWhite",
				"default" : 				{
					"color" : [ 1.0, 1.0, 1.0, 1.0 ]
				}
,
				"parentstyle" : "",
				"multi" : 0
			}
, 			{
				"name" : "newobjBlue-1",
				"default" : 				{
					"accentcolor" : [ 0.317647, 0.654902, 0.976471, 1.0 ]
				}
,
				"parentstyle" : "",
				"multi" : 0
			}
, 			{
				"name" : "newobjBrown-1",
				"default" : 				{
					"accentcolor" : [ 0.654902, 0.572549, 0.376471, 1.0 ]
				}
,
				"parentstyle" : "",
				"multi" : 0
			}
, 			{
				"name" : "newobjCyan-1",
				"default" : 				{
					"accentcolor" : [ 0.029546, 0.773327, 0.821113, 1.0 ]
				}
,
				"parentstyle" : "",
				"multi" : 0
			}
, 			{
				"name" : "newobjGreen-1",
				"default" : 				{
					"accentcolor" : [ 0.0, 0.533333, 0.168627, 1.0 ]
				}
,
				"parentstyle" : "",
				"multi" : 0
			}
, 			{
				"name" : "newobjYellow-1",
				"default" : 				{
					"fontsize" : [ 12.059008 ],
					"accentcolor" : [ 0.82517, 0.78181, 0.059545, 1.0 ]
				}
,
				"parentstyle" : "",
				"multi" : 0
			}
, 			{
				"name" : "numberGold-1",
				"default" : 				{
					"accentcolor" : [ 0.764706, 0.592157, 0.101961, 1.0 ]
				}
,
				"parentstyle" : "",
				"multi" : 0
			}
, 			{
				"name" : "rsliderGold",
				"default" : 				{
					"bgcolor" : [ 0.764706, 0.592157, 0.101961, 1.0 ],
					"color" : [ 0.646639, 0.821777, 0.854593, 1.0 ]
				}
,
				"parentstyle" : "",
				"multi" : 0
			}
 ]
	}

}
